<svg xmlns="http://www.w3.org/2000/svg" xmlns:xlink="http://www.w3.org/1999/xlink" width="64" height="72" viewBox="0 0 64 72">
  <defs>
    <clipPath id="clip-path">
      <rect id="長方形_108" data-name="長方形 108" width="64" height="72" transform="translate(0 -0.116)" fill="#fff" stroke="#707070" stroke-width="1"/>
    </clipPath>
  </defs>
  <g id="マスクグループ_23" data-name="マスクグループ 23" transform="translate(0 0.116)" clip-path="url(#clip-path)">
    <g id="react_original_logo_icon_146374" transform="translate(0 7.425)">
      <circle id="楕円形_2" data-name="楕円形 2" cx="5.827" cy="5.827" r="5.827" transform="translate(26.173 22.748)" fill="#61dafb"/>
      <path id="パス_127" data-name="パス 127" d="M54.85,23.105c-1.125-.409-2.3-.818-3.527-1.176.307-1.227.562-2.454.767-3.629,1.073-6.748-.1-11.5-3.374-13.342a6.35,6.35,0,0,0-3.272-.818c-3.578,0-8.128,2.658-12.728,7.105-4.6-4.447-9.15-7.105-12.728-7.105a6.35,6.35,0,0,0-3.272.818C13.444,6.85,12.268,11.6,13.342,18.3c.2,1.176.46,2.4.767,3.629a35.648,35.648,0,0,0-3.527,1.176C4.192,25.559.716,28.933.716,32.716s3.527,7.157,9.866,9.61c1.125.409,2.3.818,3.527,1.176-.307,1.227-.562,2.454-.767,3.629-1.073,6.748.1,11.5,3.374,13.342a6.35,6.35,0,0,0,3.272.818c3.629,0,8.179-2.658,12.728-7.105,4.6,4.447,9.15,7.105,12.728,7.105a6.35,6.35,0,0,0,3.272-.818c3.272-1.891,4.447-6.645,3.374-13.342-.2-1.176-.46-2.4-.767-3.629a35.648,35.648,0,0,0,3.527-1.176c6.39-2.454,9.866-5.827,9.866-9.61S61.24,25.559,54.85,23.105ZM47.284,7.514c2.1,1.227,2.812,5.01,1.942,10.377a30.783,30.783,0,0,1-.716,3.374,60.731,60.731,0,0,0-8.435-1.278,73.755,73.755,0,0,0-5.316-6.645C38.543,9.61,42.377,7.054,45.5,7.054a3.453,3.453,0,0,1,1.789.46ZM41.559,37.827c-.92,1.636-1.994,3.272-3.118,4.907-1.891.153-3.783.2-5.725.2-1.994,0-3.885-.051-5.725-.2q-1.687-2.454-3.067-4.907c-.971-1.687-1.891-3.425-2.709-5.112.818-1.687,1.738-3.425,2.709-5.112.92-1.636,1.994-3.272,3.118-4.907,1.891-.153,3.783-.2,5.725-.2,1.994,0,3.885.051,5.725.2q1.687,2.454,3.067,4.907c.971,1.687,1.891,3.425,2.709,5.112C43.4,34.4,42.53,36.089,41.559,37.827ZM45.8,36.141c.767,1.789,1.38,3.527,1.942,5.265-1.738.409-3.578.716-5.521.971.613-.971,1.278-1.994,1.84-3.067.613-1.073,1.176-2.147,1.738-3.169ZM32.716,49.994c-1.227-1.329-2.4-2.76-3.527-4.243,1.176.051,2.351.1,3.527.1s2.351-.051,3.527-.1C35.118,47.233,33.942,48.665,32.716,49.994Zm-9.508-7.668c-1.942-.256-3.783-.562-5.521-.971.562-1.687,1.176-3.476,1.942-5.265.562,1.022,1.125,2.1,1.738,3.118.613,1.125,1.227,2.1,1.84,3.118ZM19.629,29.291c-.767-1.789-1.38-3.527-1.942-5.265,1.738-.409,3.578-.716,5.521-.971-.613.971-1.278,1.994-1.84,3.067C20.754,27.195,20.192,28.268,19.629,29.291ZM32.716,15.438c1.227,1.329,2.4,2.76,3.527,4.243-1.176-.051-2.351-.1-3.527-.1s-2.351.051-3.527.1c1.125-1.482,2.3-2.914,3.527-4.243ZM44.064,26.173l-1.84-3.067c1.942.256,3.783.562,5.521.971-.562,1.687-1.176,3.476-1.942,5.265C45.24,28.268,44.677,27.195,44.064,26.173ZM16.2,17.891c-.869-5.367-.153-9.15,1.942-10.377a3.453,3.453,0,0,1,1.789-.46c3.067,0,6.9,2.5,10.735,6.288a67.2,67.2,0,0,0-5.316,6.645,69.5,69.5,0,0,0-8.435,1.278c-.307-1.176-.511-2.3-.716-3.374ZM3.578,32.716c0-2.4,2.914-4.958,8.026-6.85a30.649,30.649,0,0,1,3.272-1.073,74.508,74.508,0,0,0,3.067,7.974,64.414,64.414,0,0,0-3.067,7.923c-7.054-2.045-11.3-5.112-11.3-7.974Zm14.569,25.2c-2.1-1.227-2.812-5.01-1.942-10.377a30.781,30.781,0,0,1,.716-3.374,60.731,60.731,0,0,0,8.435,1.278,73.755,73.755,0,0,0,5.316,6.645c-3.783,3.732-7.617,6.288-10.735,6.288a3.453,3.453,0,0,1-1.789-.46ZM49.227,47.54c.869,5.367.153,9.15-1.942,10.377a3.453,3.453,0,0,1-1.789.46c-3.067,0-6.9-2.5-10.735-6.288a67.2,67.2,0,0,0,5.316-6.645,69.5,69.5,0,0,0,8.435-1.278C48.818,45.342,49.022,46.466,49.227,47.54Zm4.6-7.974a30.647,30.647,0,0,1-3.272,1.073,74.508,74.508,0,0,0-3.067-7.974,64.414,64.414,0,0,0,3.067-7.923c7.054,2.045,11.3,5.112,11.3,7.974C61.853,35.118,58.888,37.674,53.827,39.565Z" transform="translate(-0.716 -4.141)" fill="#61dafb"/>
    </g>
  </g>
</svg>
